<?xml version="1.0" encoding="UTF-8"?>
<svg xmlns="http://www.w3.org/2000/svg" width="648" height="324" viewBox="0 0 648 324" fill="none">
  <path d="M23.9302 64.0878H56.8067V85.6694H23.9302V129.925H65.3123V151.506H0V0.391602H65.3123V21.9732H23.9302V64.0441V64.0878Z" fill="white"></path>
  <path d="M171.605 0.391602H195.937V151.506H171.605V0.391602Z" fill="white"></path>
  <path d="M206.182 0.391602H279.178V21.9794H254.498V151.506H230.861V21.9794H206.182V0.391602Z" fill="white"></path>
  <path d="M23.6953 237.863H54.3289V259.445H23.6953V321.83H0V170.716H62.751V192.297H23.6953V237.863Z" fill="white"></path>
  <path d="M71.7154 206.259C71.7154 182.039 84.6335 168.155 108.213 168.155C131.793 168.155 144.711 181.995 144.711 206.259V285.008C144.711 309.272 131.793 323.112 108.213 323.112C84.6335 323.112 71.7154 309.272 71.7154 285.008V206.259ZM95.782 286.541C95.782 297.359 100.604 301.476 108.258 301.476C115.911 301.476 120.733 297.359 120.733 286.541V204.726C120.733 193.908 115.911 189.791 108.258 189.791C100.604 189.791 95.782 193.908 95.782 204.726V286.541Z" fill="white"></path>
  <path d="M209.219 321.83C207.922 317.943 207.101 315.585 207.101 303.269V279.51C207.101 265.49 202.39 260.293 191.715 260.293H183.59V321.787H160.079V170.716H195.518C219.85 170.716 230.309 182.159 230.309 205.481V217.36C230.309 232.909 225.382 243.041 214.923 248.02C226.679 252.999 230.525 264.398 230.525 280.165V303.487C230.525 310.824 230.741 316.24 233.075 321.83H209.175H209.219ZM183.633 192.335V238.717H192.795C201.569 238.717 206.885 234.83 206.885 222.732V207.839C206.885 197.052 203.254 192.291 194.913 192.291H183.59L183.633 192.335Z" fill="white"></path>
  <path d="M298.89 241.315L290.23 321.83H257.599L240.759 170.716H263.898L276.67 289.851L288.13 170.716H311.05L322.948 290.725L335.283 170.716H356.016L339.176 321.83H307.638L298.978 241.315H298.89Z" fill="white"></path>
  <path d="M441.818 321.83H417.835L413.721 294.438H384.53L380.416 321.83H358.577L382.779 170.716H417.572L441.774 321.83H441.818ZM387.506 273.905H410.439L398.972 197.496L387.506 273.905Z" fill="white"></path>
  <path d="M502.065 321.83C500.745 317.943 499.91 315.585 499.91 303.269V279.51C499.91 265.49 495.116 260.293 484.254 260.293H475.987V321.787H452.063V170.716H488.124C512.883 170.716 523.525 182.159 523.525 205.481V217.36C523.525 232.909 518.512 243.041 507.87 248.02C519.831 252.999 523.745 264.398 523.745 280.165V303.487C523.745 310.824 523.965 316.24 526.34 321.83H502.021H502.065ZM475.987 192.335V238.717H485.31C494.237 238.717 499.646 234.83 499.646 222.732V207.839C499.646 197.052 495.952 192.291 487.465 192.291H475.943L475.987 192.335Z" fill="white"></path>
  <path d="M539.146 170.716H576.737C600.515 170.716 612.142 183.909 612.142 208.069V284.478C612.142 308.637 600.472 321.83 576.737 321.83H539.146V170.716ZM562.881 192.297V300.249H576.256C583.818 300.249 588.364 296.361 588.364 285.57V207.02C588.364 196.229 583.818 192.341 576.256 192.341H562.881V192.297Z" fill="white"></path>
  <path d="M648 298.779V321.831H624.949V298.779H648Z" fill="white"></path>
  <path d="M127.028 40.8923L122.941 30.6472L135.068 0.391602H160.079L135.424 61.862L127.028 40.8923Z" fill="white"></path>
  <path d="M75.5573 0.391602H99.8955L117.175 44.7034L129.344 75.9926L117.175 107.238L99.8955 151.506H75.5573L104.962 75.9926L75.5573 0.391602Z" fill="white"></path>
  <path d="M135.424 90.0361L160.079 151.506H135.068L122.941 121.229L127.028 111.021L135.424 90.0361Z" fill="white"></path>
</svg>